<?xml version="1.0" encoding="UTF-8" standalone="no"?>
<!-- Generator: Adobe Illustrator 16.2.1, SVG Export Plug-In . SVG Version: 6.00 Build 0)  -->

<svg
   xmlns:dc="http://purl.org/dc/elements/1.1/"
   xmlns:cc="http://creativecommons.org/ns#"
   xmlns:rdf="http://www.w3.org/1999/02/22-rdf-syntax-ns#"
   xmlns:svg="http://www.w3.org/2000/svg"
   xmlns="http://www.w3.org/2000/svg"
   xmlns:sodipodi="http://sodipodi.sourceforge.net/DTD/sodipodi-0.dtd"
   xmlns:inkscape="http://www.inkscape.org/namespaces/inkscape"
   version="1.1"
   id="Layer_1"
   x="0px"
   y="0px"
   width="512px"
   height="512px"
   viewBox="0 0 512 512"
   style="enable-background:new 0 0 512 512;"
   xml:space="preserve"
   inkscape:version="0.91 r13725"
   sodipodi:docname="camera.svg"><metadata
     id="metadata13"><rdf:RDF><cc:Work
         rdf:about=""><dc:format>image/svg+xml</dc:format><dc:type
           rdf:resource="http://purl.org/dc/dcmitype/StillImage" /></cc:Work></rdf:RDF></metadata><defs
     id="defs11" /><sodipodi:namedview
     pagecolor="#ffffff"
     bordercolor="#666666"
     borderopacity="1"
     objecttolerance="10"
     gridtolerance="10"
     guidetolerance="10"
     inkscape:pageopacity="0"
     inkscape:pageshadow="2"
     inkscape:window-width="1920"
     inkscape:window-height="1056"
     id="namedview9"
     showgrid="false"
     inkscape:zoom="0.4609375"
     inkscape:cx="-453.42373"
     inkscape:cy="256"
     inkscape:window-x="0"
     inkscape:window-y="24"
     inkscape:window-maximized="1"
     inkscape:current-layer="Layer_1" /><g
     id="g3"
     transform="translate(0,-19)"
     style="fill:#34495e;fill-opacity:1"><path
       d="m 430.4,147 -67.5,0 -40.4,-40.8 c 0,0 -0.2,-0.2 -0.3,-0.2 l -0.2,-0.2 0,0 C 316,99.8 307.9,96 298.7,96 l -84,0 c -9.8,0 -18.5,4.2 -24.6,10.9 l 0,0.1 -39.5,40 -69,0 C 63,147 48,161.6 48,180.2 l 0,202.1 c 0,18.6 15,33.7 33.6,33.7 l 348.8,0 c 18.5,0 33.6,-15.1 33.6,-33.7 l 0,-202.1 C 464,161.6 448.9,147 430.4,147 Z M 256,365.5 c -50.9,0 -92.4,-41.6 -92.4,-92.6 0,-51.1 41.5,-92.6 92.4,-92.6 51,0 92.4,41.5 92.4,92.6 0,51 -41.4,92.6 -92.4,92.6 z m 168.1,-165 c -7.7,0 -14,-6.3 -14,-14.1 0,-7.8 6.3,-14.1 14,-14.1 7.7,0 14,6.3 14,14.1 0,7.8 -6.3,14.1 -14,14.1 z"
       id="path5"
       inkscape:connector-curvature="0"
       style="fill:#34495e;fill-opacity:1" /><path
       d="m 256,202.9 c -38.6,0 -69.8,31.3 -69.8,70 0,38.6 31.2,70 69.8,70 38.5,0 69.8,-31.3 69.8,-70 0,-38.7 -31.3,-70 -69.8,-70 z"
       id="path7"
       inkscape:connector-curvature="0"
       style="fill:#34495e;fill-opacity:1" /></g></svg>