<?xml version="1.0" encoding="UTF-8" standalone="no"?>
<svg
   xmlns:dc="http://purl.org/dc/elements/1.1/"
   xmlns:cc="http://creativecommons.org/ns#"
   xmlns:rdf="http://www.w3.org/1999/02/22-rdf-syntax-ns#"
   xmlns:svg="http://www.w3.org/2000/svg"
   xmlns="http://www.w3.org/2000/svg"
   xmlns:sodipodi="http://sodipodi.sourceforge.net/DTD/sodipodi-0.dtd"
   xmlns:inkscape="http://www.inkscape.org/namespaces/inkscape"
   height="110px"
   style="enable-background:new 0 0 110 110;"
   version="1.0"
   viewBox="0 0 110 110"
   width="110px"
   xml:space="preserve"
   id="svg2"
   inkscape:version="0.91 r13725"
   sodipodi:docname="checklist.svg"><metadata
     id="metadata60"><rdf:RDF><cc:Work
         rdf:about=""><dc:format>image/svg+xml</dc:format><dc:type
           rdf:resource="http://purl.org/dc/dcmitype/StillImage" /></cc:Work></rdf:RDF></metadata><defs
     id="defs58" /><sodipodi:namedview
     pagecolor="#ffffff"
     bordercolor="#666666"
     borderopacity="1"
     objecttolerance="10"
     gridtolerance="10"
     guidetolerance="10"
     inkscape:pageopacity="0"
     inkscape:pageshadow="2"
     inkscape:window-width="1920"
     inkscape:window-height="1056"
     id="namedview56"
     showgrid="false"
     inkscape:zoom="2.1454545"
     inkscape:cx="55"
     inkscape:cy="55"
     inkscape:window-x="0"
     inkscape:window-y="24"
     inkscape:window-maximized="1"
     inkscape:current-layer="Multicolor" /><g
     id="Artboard" /><g
     id="Multicolor"><rect
       style="fill:#e04f5f;fill-opacity:1"
       id="rect4188"
       width="110"
       height="110"
       x="0"
       y="1.1546319e-14" /><g
       id="g8"><path
         d="M23,26.84c0-2.121,1.719-3.84,3.84-3.84H55l16,13.44v46.72c0,2.121-1.719,3.84-3.84,3.84H26.84    C24.719,87,23,85.281,23,83.16V26.84z"
         style="fill:#FFFFFF;"
         id="path10" /><path
         d="M55,23v9.6c0,2.121,1.719,3.84,3.84,3.84H71L55,23z"
         style="fill:#F0F1F1;"
         id="path12" /><polygon
         points="77,41.5 82,31 87,41.5 87,80 77,80   "
         style="fill:#F4D0A1;"
         id="polygon14" /><polygon
         points="87,47 87,41.5 82,31 82,47   "
         style="fill:#EDBC7C;"
         id="polygon16" /><path
         d="M87,84c0,1.657-1.343,3-3,3h-4c-1.657,0-3-1.343-3-3v-2h10V84z"
         style="fill:#F79392;"
         id="path18" /><path
         d="M62,45c0,0.55-0.45,1-1,1H46c-0.55,0-1-0.45-1-1l0,0c0-0.55,0.45-1,1-1h15C61.55,44,62,44.45,62,45    L62,45z"
         style="fill:#E2E4E5;"
         id="path20" /><path
         d="M56,50c0,0.55-0.45,1-1,1h-9c-0.55,0-1-0.45-1-1l0,0c0-0.55,0.45-1,1-1h9C55.55,49,56,49.45,56,50    L56,50z"
         style="fill:#E2E4E5;"
         id="path22" /><path
         d="M62,58c0,0.55-0.45,1-1,1H46c-0.55,0-1-0.45-1-1l0,0c0-0.55,0.45-1,1-1h15C61.55,57,62,57.45,62,58    L62,58z"
         style="fill:#E2E4E5;"
         id="path24" /><path
         d="M56,63c0,0.55-0.45,1-1,1h-9c-0.55,0-1-0.45-1-1l0,0c0-0.55,0.45-1,1-1h9C55.55,62,56,62.45,56,63    L56,63z"
         style="fill:#E2E4E5;"
         id="path26" /><path
         d="M62,71c0,0.55-0.45,1-1,1H46c-0.55,0-1-0.45-1-1l0,0c0-0.55,0.45-1,1-1h15C61.55,70,62,70.45,62,71    L62,71z"
         style="fill:#E2E4E5;"
         id="path28" /><path
         d="M56,76c0,0.55-0.45,1-1,1h-9c-0.55,0-1-0.45-1-1l0,0c0-0.55,0.45-1,1-1h9C55.55,75,56,75.45,56,76    L56,76z"
         style="fill:#E2E4E5;"
         id="path30" /><g
         id="g32"><path
           d="M35.067,52l-3.774-3.774c-0.391-0.39-0.391-1.024,0-1.414c0.391-0.391,1.024-0.391,1.414,0     l2.226,2.226l4.299-5.159c0.354-0.425,0.984-0.482,1.408-0.128c0.424,0.354,0.482,0.984,0.128,1.408L35.067,52z"
           style="fill:#17B198;"
           id="path34" /></g><g
         id="g36"><path
           d="M35.067,65l-3.774-3.774c-0.391-0.39-0.391-1.024,0-1.414c0.391-0.391,1.024-0.391,1.414,0     l2.226,2.226l4.299-5.159c0.354-0.425,0.984-0.482,1.408-0.128c0.424,0.354,0.482,0.984,0.128,1.408L35.067,65z"
           style="fill:#17B198;"
           id="path38" /></g><g
         id="g40"><path
           d="M35.067,78l-3.774-3.774c-0.391-0.39-0.391-1.024,0-1.414c0.391-0.391,1.024-0.391,1.414,0     l2.226,2.226l4.299-5.159c0.354-0.425,0.984-0.482,1.408-0.128c0.424,0.354,0.482,0.984,0.128,1.408L35.067,78z"
           style="fill:#17B198;"
           id="path42" /></g><rect
         height="3"
         style="fill:#FACB1B;"
         width="10"
         x="77"
         y="79"
         id="rect44" /><rect
         height="2"
         style="fill:#FBE158;"
         width="5"
         x="77"
         y="80"
         id="rect46" /><path
         d="M82.013,30.984l-1.857,3.899c0.512,0.678,1.152,1.101,1.857,1.101s1.345-0.422,1.857-1.101    L82.013,30.984z"
         style="fill:#3E3E3F;"
         id="path48" /><path
         d="M84.5,43c-1.154,0-2.126-0.782-2.413-1.845c-0.026-0.097-0.147-0.097-0.173,0    C81.626,42.218,80.654,43,79.5,43c-1.052,0-1.953-0.65-2.322-1.571C77.139,41.332,77,41.359,77,41.464V80h10V41.464    c0-0.105-0.139-0.131-0.178-0.034C86.453,42.35,85.552,43,84.5,43z"
         style="fill:#0484AB;"
         id="path50" /><path
         d="M77,80V41.493c0-0.111,0.147-0.139,0.19-0.036C77.565,42.363,78.458,43,79.5,43    c1.159,0,2.134-0.789,2.417-1.859C81.931,41.089,82,41.096,82,41.15V80H77z"
         style="fill:#21B2D1;"
         id="path52" /><path
         d="M77,82v2c0,1.657,1.343,3,3,3h2v-5H77z"
         style="fill:#F7B4B4;"
         id="path54" /></g></g></svg>