<?xml version="1.0" encoding="UTF-8" standalone="no"?>
<svg
   xmlns:dc="http://purl.org/dc/elements/1.1/"
   xmlns:cc="http://creativecommons.org/ns#"
   xmlns:rdf="http://www.w3.org/1999/02/22-rdf-syntax-ns#"
   xmlns:svg="http://www.w3.org/2000/svg"
   xmlns="http://www.w3.org/2000/svg"
   xmlns:sodipodi="http://sodipodi.sourceforge.net/DTD/sodipodi-0.dtd"
   xmlns:inkscape="http://www.inkscape.org/namespaces/inkscape"
   height="110px"
   style="enable-background:new 0 0 110 110;"
   version="1.0"
   viewBox="0 0 110 110"
   width="110px"
   xml:space="preserve"
   id="svg2"
   inkscape:version="0.91 r13725"
   sodipodi:docname="comment.svg"><metadata
     id="metadata26"><rdf:RDF><cc:Work
         rdf:about=""><dc:format>image/svg+xml</dc:format><dc:type
           rdf:resource="http://purl.org/dc/dcmitype/StillImage" /></cc:Work></rdf:RDF></metadata><defs
     id="defs24" /><sodipodi:namedview
     pagecolor="#ffffff"
     bordercolor="#666666"
     borderopacity="1"
     objecttolerance="10"
     gridtolerance="10"
     guidetolerance="10"
     inkscape:pageopacity="0"
     inkscape:pageshadow="2"
     inkscape:window-width="1920"
     inkscape:window-height="1056"
     id="namedview22"
     showgrid="false"
     inkscape:zoom="2.1454545"
     inkscape:cx="55"
     inkscape:cy="55"
     inkscape:window-x="0"
     inkscape:window-y="24"
     inkscape:window-maximized="1"
     inkscape:current-layer="svg2" /><rect
     style="fill:#25b7d3;fill-opacity:1"
     id="rect4154"
     width="110"
     height="110"
     x="0"
     y="1.4432899e-15" /><g
     id="Artboard" /><g
     id="Multicolor"><circle
       cx="55"
       cy="55"
       r="55"
       style="fill:#25B7D3;"
       id="circle6" /><g
       id="g8"><path
         d="M39,67c0,2.209,1.791,4,4,4h24l12,12V71h4c2.209,0,4-1.791,4-4V35c0-2.209-1.791-4-4-4H43    c-2.209,0-4,1.791-4,4V67z"
         style="fill:#6FDAF1;"
         id="path10" /><path
         d="M71,59c0,2.209-1.791,4-4,4H43L31,75V63h-4c-2.209,0-4-1.791-4-4V27c0-2.209,1.791-4,4-4h40    c2.209,0,4,1.791,4,4V59z"
         style="fill:#F0F1F1;"
         id="path12" /><path
         d="M70.335,24.798C69.62,23.716,68.395,23,67,23H27c-2.209,0-4,1.791-4,4v32c0,2.209,1.791,4,4,4h4    v1.134L70.335,24.798z"
         style="fill:#FFFFFF;"
         id="path14" /><circle
         cx="35"
         cy="43"
         r="4"
         style="fill:#21B2D1;"
         id="circle16" /><circle
         cx="47"
         cy="43"
         r="4"
         style="fill:#21B2D1;"
         id="circle18" /><circle
         cx="59"
         cy="43"
         r="4"
         style="fill:#21B2D1;"
         id="circle20" /></g></g></svg>