<?xml version="1.0" encoding="UTF-8" standalone="no"?>
<!-- Generator: Adobe Illustrator 15.0.0, SVG Export Plug-In . SVG Version: 6.00 Build 0)  -->

<svg
   xmlns:dc="http://purl.org/dc/elements/1.1/"
   xmlns:cc="http://creativecommons.org/ns#"
   xmlns:rdf="http://www.w3.org/1999/02/22-rdf-syntax-ns#"
   xmlns:svg="http://www.w3.org/2000/svg"
   xmlns="http://www.w3.org/2000/svg"
   xmlns:sodipodi="http://sodipodi.sourceforge.net/DTD/sodipodi-0.dtd"
   xmlns:inkscape="http://www.inkscape.org/namespaces/inkscape"
   version="1.1"
   id="Icons"
   x="0px"
   y="0px"
   width="100px"
   height="100px"
   viewBox="0 0 100 100"
   style="enable-background:new 0 0 100 100;"
   xml:space="preserve"
   inkscape:version="0.91 r13725"
   sodipodi:docname="facebook.svg"><metadata
     id="metadata8"><rdf:RDF><cc:Work
         rdf:about=""><dc:format>image/svg+xml</dc:format><dc:type
           rdf:resource="http://purl.org/dc/dcmitype/StillImage" /><dc:title /></cc:Work></rdf:RDF></metadata><defs
     id="defs6" /><sodipodi:namedview
     pagecolor="#ffffff"
     bordercolor="#666666"
     borderopacity="1"
     objecttolerance="10"
     gridtolerance="10"
     guidetolerance="10"
     inkscape:pageopacity="0"
     inkscape:pageshadow="2"
     inkscape:window-width="1920"
     inkscape:window-height="1056"
     id="namedview4"
     showgrid="false"
     inkscape:zoom="2.36"
     inkscape:cx="-19.491525"
     inkscape:cy="50"
     inkscape:window-x="0"
     inkscape:window-y="24"
     inkscape:window-maximized="1"
     inkscape:current-layer="Icons" /><path
     id="Facebook__x28_alt_x29_"
     d="M 85,26.667445 C 85,20.537 79.465333,15 73.333333,15 L 26.666667,15 C 20.534667,15 15,20.537 15,26.667445 l 0,46.66511 C 15,79.463 20.534667,85 26.667445,85 L 50,85 l 0,-26.444445 -8.555555,0 0,-11.666667 8.555555,0 0,-4.545333 c 0,-7.839222 5.887,-14.89911 13.125,-14.89911 l 9.430555,0 0,11.666666 -9.430555,0 c -1.032111,0 -2.236111,1.253 -2.236111,3.129777 l 0,4.648 11.666666,0 0,11.666667 -11.666666,0 0,26.444445 12.444444,0 C 79.465333,85 85,79.463 85,73.332555 l 0,-46.66511 z"
     inkscape:connector-curvature="0"
     style="fill:#34495e;fill-opacity:1" /></svg>