<?xml version="1.0" encoding="UTF-8" standalone="no"?>
<!-- Created with Inkscape (http://www.inkscape.org/) -->

<svg
   xmlns:dc="http://purl.org/dc/elements/1.1/"
   xmlns:cc="http://creativecommons.org/ns#"
   xmlns:rdf="http://www.w3.org/1999/02/22-rdf-syntax-ns#"
   xmlns:svg="http://www.w3.org/2000/svg"
   xmlns="http://www.w3.org/2000/svg"
   xmlns:sodipodi="http://sodipodi.sourceforge.net/DTD/sodipodi-0.dtd"
   xmlns:inkscape="http://www.inkscape.org/namespaces/inkscape"
   width="6mm"
   height="6mm"
   viewBox="0 0 21.259842 21.259843"
   id="svg4833"
   version="1.1"
   inkscape:version="0.91 r13725"
   sodipodi:docname="facebook_small.svg">
  <defs
     id="defs4835" />
  <sodipodi:namedview
     id="base"
     pagecolor="#ffffff"
     bordercolor="#666666"
     borderopacity="1.0"
     inkscape:pageopacity="0.0"
     inkscape:pageshadow="2"
     inkscape:zoom="2.8"
     inkscape:cx="-0.46991027"
     inkscape:cy="-17.942149"
     inkscape:document-units="px"
     inkscape:current-layer="layer1"
     showgrid="false"
     fit-margin-top="0"
     fit-margin-left="0"
     fit-margin-right="0"
     fit-margin-bottom="0"
     inkscape:window-width="1920"
     inkscape:window-height="1056"
     inkscape:window-x="0"
     inkscape:window-y="24"
     inkscape:window-maximized="1" />
  <metadata
     id="metadata4838">
    <rdf:RDF>
      <cc:Work
         rdf:about="">
        <dc:format>image/svg+xml</dc:format>
        <dc:type
           rdf:resource="http://purl.org/dc/dcmitype/StillImage" />
        <dc:title></dc:title>
      </cc:Work>
    </rdf:RDF>
  </metadata>
  <g
     inkscape:label="Layer 1"
     inkscape:groupmode="layer"
     id="layer1"
     transform="translate(264.53009,-307.44593)">
    <path
       d="m -259.53009,314.47703 2.19875,0 0,-2.13625 c 0,-0.9425 0.0238,-2.395 0.7075,-3.295 0.72125,-0.9525 1.71,-1.6 3.4125,-1.6 2.7725,0 3.94,0.395 3.94,0.395 l -0.54875,3.25625 c 0,0 -0.91625,-0.26375 -1.77125,-0.26375 -0.855,0 -1.62,0.30625 -1.62,1.16 l 0,2.48375 3.505,0 -0.245,3.18 -3.26,0 0,11.04875 -4.12,0 0,-11.04875 -2.19875,0 0,-3.18"
       style="fill:#ffffff;fill-opacity:1;fill-rule:nonzero;stroke:none"
       id="path352"
       inkscape:connector-curvature="0" />
  </g>
</svg>
