<?xml version="1.0" encoding="UTF-8" standalone="no"?>
<svg
   xmlns:dc="http://purl.org/dc/elements/1.1/"
   xmlns:cc="http://creativecommons.org/ns#"
   xmlns:rdf="http://www.w3.org/1999/02/22-rdf-syntax-ns#"
   xmlns:svg="http://www.w3.org/2000/svg"
   xmlns="http://www.w3.org/2000/svg"
   xmlns:sodipodi="http://sodipodi.sourceforge.net/DTD/sodipodi-0.dtd"
   xmlns:inkscape="http://www.inkscape.org/namespaces/inkscape"
   height="180"
   id="svg2"
   version="1.1"
   width="180"
   inkscape:version="0.91 r13725"
   sodipodi:docname="facebook.svg">
  <metadata
     id="metadata13">
    <rdf:RDF>
      <cc:Work
         rdf:about="">
        <dc:format>image/svg+xml</dc:format>
        <dc:type
           rdf:resource="http://purl.org/dc/dcmitype/StillImage" />
        <dc:title></dc:title>
      </cc:Work>
    </rdf:RDF>
  </metadata>
  <sodipodi:namedview
     pagecolor="#ffffff"
     bordercolor="#666666"
     borderopacity="1"
     objecttolerance="10"
     gridtolerance="10"
     guidetolerance="10"
     inkscape:pageopacity="0"
     inkscape:pageshadow="2"
     inkscape:window-width="711"
     inkscape:window-height="480"
     id="namedview11"
     showgrid="false"
     fit-margin-top="0"
     fit-margin-left="0"
     fit-margin-right="0"
     fit-margin-bottom="0"
     inkscape:zoom="256"
     inkscape:cx="-1.814374"
     inkscape:cy="92.449153"
     inkscape:window-x="187"
     inkscape:window-y="54"
     inkscape:window-maximized="0"
     inkscape:current-layer="svg2" />
  <defs
     id="defs4" />
  <g
     id="layer1"
     style="display:inline"
     transform="translate(-10,-862.36218)">
    <path
       d="m 100,10 c -49.705627,0 -90,40.294373 -90,90 0,49.70563 40.294373,90 90,90 1.96568,0 3.87817,-0.18838 5.8125,-0.3125 6.56774,-0.42145 12.93133,-1.60811 19.03125,-3.375 5.67307,-1.64325 11.11833,-3.78198 16.28125,-6.4375 24.86147,-12.78734 42.92154,-36.76697 47.59375,-65.3125 C 189.49546,109.81711 190,104.96886 190,100 c 0,-3.650216 -0.29637,-7.213524 -0.71875,-10.75 -0.0857,-0.717749 -0.24127,-1.412524 -0.34375,-2.125 C 182.66932,43.544928 145.31458,10 100,10 Z"
       id="path5742"
       style="fill:#3b5998;fill-opacity:1;stroke:none"
       transform="translate(0,852.36218)"
       inkscape:connector-curvature="0" />
  </g>
  <g
     id="layer3"
     style="display:inline"
     transform="translate(113.41772,-10)" />
  <g
     id="layer4"
     style="display:inline"
     transform="translate(-10.082283,-10)">
    <path
       d="m 88.50886,127.02604 0,-22.97394 -7.75443,0 -7.75443,0 0,-8.68033 0,-8.68033 7.74032,0 7.74032,0 0.0629,-7.8991 c 0.0663,-8.32086 0.10293,-8.96772 0.66592,-11.74895 1.92679,-9.51868 8.57593,-15.56415 18.54672,-16.8629 2.74946,-0.35813 11.94988,-0.15546 16.48669,0.36319 l 0.60763,0.0695 0,7.732 0,7.73201 -6.16304,0.0406 c -5.97859,0.0394 -6.19025,0.0484 -7.07261,0.30072 -2.81945,0.80628 -4.24535,2.32146 -4.82406,5.12611 -0.20678,1.00219 -0.22393,1.61952 -0.22533,8.11577 l -0.002,7.03107 8.73819,0 8.7382,0 -4.7e-4,0.26041 c -4.5e-4,0.26005 -2.0193,16.01185 -2.14348,16.7241 l -0.0656,0.37615 -7.63345,0 -7.63344,0 0,22.97394 0,22.97394 -9.02754,0 -9.02754,0 0,-22.97394 z"
       id="path5490"
       style="display:inline;fill:#ececec;fill-opacity:1"
       inkscape:connector-curvature="0" />
    <path
       d="M 98.6875,10.09375 C 59.471926,10.678953 23.778638,37.052587 13.125,76.8125 c -12.86476033,48.01195 15.64432,97.35415 63.65625,110.21875 1.8987,0.5088 3.787,0.83805 5.6875,1.21875 5.869286,1.17576 11.73979,1.66782 17.53125,1.65625 l 0,-179.8125 c -0.438549,8.9e-5 -0.874803,-0.0065 -1.3125,0 z"
       id="rect2989"
       style="opacity:0.15;fill:#ffffff;fill-opacity:1;fill-rule:nonzero;stroke:none"
       inkscape:connector-curvature="0" />
    <rect
       height="1.2962025"
       id="rect3759"
       style="opacity:0.1;fill:#ffffff;fill-opacity:1;fill-rule:nonzero;stroke:none"
       width="1.9443038"
       x="-113.41772"
       y="68.759491" />
  </g>
</svg>
