<?xml version="1.0" encoding="UTF-8" standalone="no"?>
<!-- Created with Inkscape (http://www.inkscape.org/) -->

<svg
   xmlns:dc="http://purl.org/dc/elements/1.1/"
   xmlns:cc="http://creativecommons.org/ns#"
   xmlns:rdf="http://www.w3.org/1999/02/22-rdf-syntax-ns#"
   xmlns:svg="http://www.w3.org/2000/svg"
   xmlns="http://www.w3.org/2000/svg"
   xmlns:sodipodi="http://sodipodi.sourceforge.net/DTD/sodipodi-0.dtd"
   xmlns:inkscape="http://www.inkscape.org/namespaces/inkscape"
   width="6mm"
   height="6mm"
   viewBox="0 0 21.259842 21.259843"
   id="svg4833"
   version="1.1"
   inkscape:version="0.91 r13725"
   sodipodi:docname="googleplus_small.svg">
  <defs
     id="defs4835" />
  <sodipodi:namedview
     id="base"
     pagecolor="#ffffff"
     bordercolor="#666666"
     borderopacity="1.0"
     inkscape:pageopacity="0.0"
     inkscape:pageshadow="2"
     inkscape:zoom="2.8"
     inkscape:cx="-0.46991027"
     inkscape:cy="-17.942149"
     inkscape:document-units="px"
     inkscape:current-layer="layer1"
     showgrid="false"
     fit-margin-top="0"
     fit-margin-left="0"
     fit-margin-right="0"
     fit-margin-bottom="0"
     inkscape:window-width="1920"
     inkscape:window-height="1056"
     inkscape:window-x="0"
     inkscape:window-y="24"
     inkscape:window-maximized="1" />
  <metadata
     id="metadata4838">
    <rdf:RDF>
      <cc:Work
         rdf:about="">
        <dc:format>image/svg+xml</dc:format>
        <dc:type
           rdf:resource="http://purl.org/dc/dcmitype/StillImage" />
        <dc:title></dc:title>
      </cc:Work>
    </rdf:RDF>
  </metadata>
  <g
     inkscape:label="Layer 1"
     inkscape:groupmode="layer"
     id="layer1"
     transform="translate(264.53009,-307.44593)">
    <path
       d="m -243.44134,316.57962 -2.56375,0 0,-2.56375 -2.0625,0 0,2.56375 -2.5625,0 0,2.0625 2.5625,0 0,2.56375 2.0625,0 0,-2.56375 2.56375,0 0,-2.0625 z m -9.58,3.105 c -0.595,-0.42125 -1.7325,-1.44625 -1.7325,-2.04875 0,-0.70625 0.2025,-1.0525 1.26375,-1.8825 1.08875,-0.8525 1.86,-2.04875 1.86,-3.43875 0,-1.65625 -0.7375,-3.27 -2.1225,-3.80375 l 2.0875,0 1.47375,-1.06375 -6.585,0 c -2.95125,0 -5.72875,2.23625 -5.72875,4.825 0,2.6475 2.0125,4.785 5.015,4.785 0.20875,0 0.41125,-0.005 0.61,-0.0188 -0.195,0.3725 -0.335,0.79375 -0.335,1.22875 0,0.73625 0.39625,1.3325 0.89625,1.82 -0.3775,0 -0.74375,0.0112 -1.14,0.0112 -3.65625,0 -6.47125,2.3275 -6.47125,4.7425 0,2.3775 3.085,3.865 6.74125,3.865 4.1675,0 6.47,-2.36375 6.47,-4.7425 0,-1.9075 -0.5625,-3.04875 -2.3025,-4.27875 m -3.51625,-3.3 c -1.69625,-0.05 -3.30875,-1.8975 -3.60125,-4.12375 -0.29375,-2.22875 0.845,-3.9325 2.54125,-3.8825 1.695,0.0512 3.3075,1.8375 3.6,4.065 0.2925,2.2275 -0.84375,3.9925 -2.54,3.94125 m -0.665,11.27 c -2.5275,0 -4.3525,-1.59875 -4.3525,-3.52125 0,-1.88375 2.265,-3.45125 4.79125,-3.42375 0.59,0.006 1.14,0.10125 1.63875,0.2625 1.37125,0.955 2.355,1.4925 2.6325,2.58 0.0525,0.22125 0.0813,0.4475 0.0813,0.67875 0,1.9225 -1.2375,3.42375 -4.79125,3.42375"
       style="fill:#ffffff;fill-opacity:1;fill-rule:nonzero;stroke:none"
       id="path360"
       inkscape:connector-curvature="0" />
  </g>
</svg>
