<?xml version="1.0" encoding="UTF-8" standalone="no"?>
<!-- Created with Inkscape (http://www.inkscape.org/) -->

<svg
   xmlns:dc="http://purl.org/dc/elements/1.1/"
   xmlns:cc="http://creativecommons.org/ns#"
   xmlns:rdf="http://www.w3.org/1999/02/22-rdf-syntax-ns#"
   xmlns:svg="http://www.w3.org/2000/svg"
   xmlns="http://www.w3.org/2000/svg"
   xmlns:sodipodi="http://sodipodi.sourceforge.net/DTD/sodipodi-0.dtd"
   xmlns:inkscape="http://www.inkscape.org/namespaces/inkscape"
   width="30.856283mm"
   height="30.855846mm"
   viewBox="0 0 109.33329 109.33174"
   id="svg4245"
   version="1.1"
   inkscape:version="0.91 r13725"
   sodipodi:docname="instagram_line.svg">
  <defs
     id="defs4247" />
  <sodipodi:namedview
     id="base"
     pagecolor="#ffffff"
     bordercolor="#666666"
     borderopacity="1.0"
     inkscape:pageopacity="0.0"
     inkscape:pageshadow="2"
     inkscape:zoom="0.98994949"
     inkscape:cx="-515.99838"
     inkscape:cy="134.66587"
     inkscape:document-units="px"
     inkscape:current-layer="layer1"
     showgrid="false"
     fit-margin-top="0"
     fit-margin-left="0"
     fit-margin-right="0"
     fit-margin-bottom="0"
     inkscape:window-width="1920"
     inkscape:window-height="1056"
     inkscape:window-x="0"
     inkscape:window-y="24"
     inkscape:window-maximized="1" />
  <metadata
     id="metadata4250">
    <rdf:RDF>
      <cc:Work
         rdf:about="">
        <dc:format>image/svg+xml</dc:format>
        <dc:type
           rdf:resource="http://purl.org/dc/dcmitype/StillImage" />
        <dc:title />
      </cc:Work>
    </rdf:RDF>
  </metadata>
  <g
     inkscape:label="Layer 1"
     inkscape:groupmode="layer"
     id="layer1"
     transform="translate(-256.76193,-329.12491)">
    <path
       inkscape:connector-curvature="0"
       id="path84"
       style="fill-opacity:1;fill-rule:nonzero;stroke:none;fill:#9b59b6"
       d="m 311.4278,331.78867 c -28.67254,0 -51.99902,23.32648 -51.99902,52.00057 0,28.67254 23.32648,52.00056 51.99902,52.00056 28.67409,0 52.00056,-23.32802 52.00056,-52.00056 0,-28.67409 -23.32647,-52.00057 -52.00056,-52.00057 z m 0,106.66798 c -30.14194,0 -54.66587,-24.52547 -54.66587,-54.66741 0,-30.14349 24.52393,-54.66742 54.66587,-54.66742 30.14503,0 54.66742,24.52393 54.66742,54.66742 0,30.14194 -24.52239,54.66741 -54.66742,54.66741" />
    <path
       inkscape:connector-curvature="0"
       id="path86"
       style="fill-opacity:1;fill-rule:nonzero;stroke:none;fill:#9b59b6"
       d="m 330.75863,398.50329 c 0,2.53552 -2.06426,4.5936 -4.60133,4.5936 l -29.44664,0 c -2.53706,0 -4.59824,-2.05808 -4.59824,-4.5936 l 0,-19.63985 7.16466,0 c -0.61649,1.52502 -0.96723,3.18446 -0.96723,4.9258 0,7.23419 5.8884,13.11486 13.12568,13.11486 7.23728,0 13.12413,-5.88067 13.12413,-13.11486 0,-1.74134 -0.35228,-3.40078 -0.96723,-4.9258 l 7.1662,0 z m -26.17256,-19.63985 c 1.53275,-2.12607 4.02964,-3.51976 6.84946,-3.51976 2.81982,0 5.31362,1.39369 6.84791,3.51976 1.00123,1.38905 1.60382,3.08403 1.60382,4.9258 0,4.65695 -3.79324,8.43937 -8.45173,8.43937 -4.66004,0 -8.45019,-3.78242 -8.45019,-8.43937 0,-1.84177 0.60105,-3.53675 1.60073,-4.9258 z m 24.23191,-13.52741 1.05994,-0.006 0,8.1288 -8.10872,0.0309 -0.0278,-8.13189 z m -2.66068,-5.52994 -29.44664,0 c -5.11276,0 -9.27527,4.15634 -9.27527,9.26755 l 0,29.42965 c 0,5.11121 4.16251,9.26909 9.27527,9.26909 l 29.44664,0 c 5.11431,0 9.27682,-4.15788 9.27682,-9.26909 l 0,-29.42965 c 0,-5.11121 -4.16251,-9.26755 -9.27682,-9.26755" />
  </g>
</svg>
