<?xml version="1.0" encoding="UTF-8" standalone="no"?>
<svg
   xmlns:dc="http://purl.org/dc/elements/1.1/"
   xmlns:cc="http://creativecommons.org/ns#"
   xmlns:rdf="http://www.w3.org/1999/02/22-rdf-syntax-ns#"
   xmlns:svg="http://www.w3.org/2000/svg"
   xmlns="http://www.w3.org/2000/svg"
   xmlns:sodipodi="http://sodipodi.sourceforge.net/DTD/sodipodi-0.dtd"
   xmlns:inkscape="http://www.inkscape.org/namespaces/inkscape"
   height="180"
   id="svg2"
   version="1.1"
   width="181"
   inkscape:version="0.91 r13725"
   sodipodi:docname="instagram.svg">
  <metadata
     id="metadata12">
    <rdf:RDF>
      <cc:Work
         rdf:about="">
        <dc:format>image/svg+xml</dc:format>
        <dc:type
           rdf:resource="http://purl.org/dc/dcmitype/StillImage" />
        <dc:title></dc:title>
      </cc:Work>
    </rdf:RDF>
  </metadata>
  <sodipodi:namedview
     pagecolor="#ffffff"
     bordercolor="#666666"
     borderopacity="1"
     objecttolerance="10"
     gridtolerance="10"
     guidetolerance="10"
     inkscape:pageopacity="0"
     inkscape:pageshadow="2"
     inkscape:window-width="711"
     inkscape:window-height="480"
     id="namedview10"
     showgrid="false"
     fit-margin-top="0"
     fit-margin-left="0"
     fit-margin-right="0"
     fit-margin-bottom="0"
     inkscape:zoom="1.18"
     inkscape:cx="90.999999"
     inkscape:cy="90"
     inkscape:window-x="0"
     inkscape:window-y="24"
     inkscape:window-maximized="0"
     inkscape:current-layer="svg2" />
  <defs
     id="defs4" />
  <g
     id="layer1"
     style="display:inline"
     transform="translate(-9.000001,-862.36218)">
    <path
       d="m 100,10 c -49.705627,0 -90,40.29437 -90,90 0,49.70562 40.294373,90 90,90 0.75044,0 1.47964,-0.084 2.21875,-0.125 0.26003,-0.014 0.52093,-0.0182 0.78125,-0.0312 0.93792,-0.0464 1.87645,-0.0962 2.8125,-0.15625 6.56774,-0.42145 12.93133,-1.60811 19.03125,-3.375 5.67307,-1.64325 11.11833,-3.78198 16.28125,-6.4375 18.08925,-9.30409 32.44221,-24.61047 40.78125,-43.21875 0.0631,-0.14086 0.15632,-0.26501 0.21875,-0.40625 1.70139,-3.84911 3.2178,-7.79522 4.375,-11.90625 0.9004,-3.19873 1.67308,-6.44741 2.21875,-9.78125 0.59899,-3.6596 0.95632,-7.39741 1.125,-11.1875 0.05,-1.12451 0.15625,-2.23807 0.15625,-3.375 0,-3.65022 -0.29637,-7.21352 -0.71875,-10.75 -0.0857,-0.71775 -0.24127,-1.41252 -0.34375,-2.125 C 182.66932,43.54493 145.31458,10 100,10 Z"
       id="path5955"
       style="fill:#264e80;fill-opacity:1;stroke:none"
       transform="translate(0,852.36218)"
       inkscape:connector-curvature="0" />
    <path
       d="m 130.67412,902.36218 -61.34824,0 C 58.66952,902.36218 50,911.02985 50,921.68642 l 0,20.41359 0,40.93797 c 0,10.6565 8.66952,19.32422 19.32588,19.32422 l 61.35025,0 C 141.3325,1002.3622 150,993.69448 150,983.03798 l 0,-40.93999 0,-20.41359 c -0.002,-10.65657 -8.66952,-19.32222 -19.32588,-19.32222 z m 5.543,11.52394 2.21075,-0.008 0,2.20071 0,14.74945 -16.89326,0.0545 -0.0585,-16.94815 14.741,-0.0484 z m -50.49016,28.21187 c 3.20317,-4.43166 8.39923,-7.33836 14.27304,-7.33836 5.87381,0 11.06987,2.9067 14.269,7.33836 2.08367,2.89259 3.33226,6.43066 3.33226,10.26323 0,9.70448 -7.90302,17.59956 -17.60328,17.59956 -9.70631,0 -17.60126,-7.89508 -17.60126,-17.59956 0.002,-3.83257 1.24658,-7.37064 3.33024,-10.26323 z m 54.52841,40.93789 c 0,5.287 -4.29846,9.5815 -9.58125,9.5815 l -61.34824,0 c -5.28481,0 -9.58326,-4.2945 -9.58326,-9.5815 l 0,-40.93789 14.92657,0 c -1.28893,3.17095 -2.01307,6.63439 -2.01307,10.26323 0,15.07416 12.264,27.34646 27.34388,27.34646 15.07786,0 27.34186,-12.2723 27.34186,-27.34646 0,-3.62884 -0.72818,-7.09228 -2.01711,-10.26323 l 14.93062,0 0,40.93789 z"
       id="path3"
       style="fill:#ececec"
       inkscape:connector-curvature="0" />
  </g>
  <g
     id="layer9"
     transform="translate(-9.000001,-9.9999995)" />
  <g
     id="layer8"
     style="display:inline"
     transform="translate(-9.000001,-9.9999995)">
    <path
       d="M 99,9.9999995 C 49.29437,9.9999995 9.000001,50.294369 9.000001,99.999998 9.000001,149.70566 49.294371,190 99,190 L 99,9.9999995 Z"
       id="rect2995"
       style="display:inline;opacity:0.15;fill:#ffffff;fill-opacity:1;fill-rule:nonzero;stroke:none"
       inkscape:connector-curvature="0" />
  </g>
</svg>
