<?xml version="1.0" encoding="UTF-8" standalone="no"?>
<!-- Created with Inkscape (http://www.inkscape.org/) -->

<svg
   xmlns:dc="http://purl.org/dc/elements/1.1/"
   xmlns:cc="http://creativecommons.org/ns#"
   xmlns:rdf="http://www.w3.org/1999/02/22-rdf-syntax-ns#"
   xmlns:svg="http://www.w3.org/2000/svg"
   xmlns="http://www.w3.org/2000/svg"
   xmlns:sodipodi="http://sodipodi.sourceforge.net/DTD/sodipodi-0.dtd"
   xmlns:inkscape="http://www.inkscape.org/namespaces/inkscape"
   width="320"
   height="320"
   viewBox="0 0 319.99998 319.99998"
   id="svg2"
   version="1.1"
   inkscape:version="0.91 r13725"
   sodipodi:docname="kino123.svg">
  <defs
     id="defs4" />
  <sodipodi:namedview
     id="base"
     pagecolor="#ffffff"
     bordercolor="#666666"
     borderopacity="1.0"
     inkscape:pageopacity="0.0"
     inkscape:pageshadow="2"
     inkscape:zoom="1.002826"
     inkscape:cx="341.90711"
     inkscape:cy="129.05187"
     inkscape:document-units="px"
     inkscape:current-layer="layer1"
     showgrid="false"
     fit-margin-top="0"
     fit-margin-left="0"
     fit-margin-right="0"
     fit-margin-bottom="0"
     inkscape:window-width="1920"
     inkscape:window-height="1056"
     inkscape:window-x="0"
     inkscape:window-y="24"
     inkscape:window-maximized="1"
     units="px" />
  <metadata
     id="metadata7">
    <rdf:RDF>
      <cc:Work
         rdf:about="">
        <dc:format>image/svg+xml</dc:format>
        <dc:type
           rdf:resource="http://purl.org/dc/dcmitype/StillImage" />
        <dc:title></dc:title>
      </cc:Work>
    </rdf:RDF>
  </metadata>
  <g
     inkscape:label="Layer 1"
     inkscape:groupmode="layer"
     id="layer1"
     transform="translate(599.01639,-278.16132)">
    <path
       style="fill:#04cfe2"
       d="m -429.7656,457.77281 c -1.48597,-0.45632 -2.57502,-1.18509 -3.64957,-2.4422 -1.63366,-1.91121 -1.63415,-1.91661 -1.5569,-16.86089 0.0676,-13.07696 0.0691,-13.11381 0.56668,-14.11235 0.70487,-1.41449 2.18297,-2.8606 3.61223,-3.53407 l 1.22223,-0.57592 15.66677,0 15.66677,0 1.26447,0.62095 c 1.652,0.81125 3.33956,2.64474 3.75671,4.08157 0.43595,1.50161 0.46137,26.80618 0.0284,28.23279 -0.60436,1.99113 -2.71377,3.93925 -5.00078,4.61842 -1.67452,0.49728 -29.94797,0.47194 -31.57697,-0.0283 z m 30.36274,-1.94217 c 1.42317,-0.42831 2.99268,-1.62143 3.68743,-2.80314 l 0.58917,-1.00213 0.0627,-12.39429 c 0.0416,-8.22268 -0.0165,-12.68853 -0.17272,-13.26852 -0.34896,-1.29595 -1.52397,-2.6942 -2.89789,-3.44849 l -1.21433,-0.66667 -13.88898,-0.0701 c -9.53024,-0.0481 -14.23767,0.007 -15.0001,0.17442 -1.36866,0.30117 -3.01475,1.47396 -3.83072,2.72927 l -0.61375,0.9442 -0.0663,12.44452 c -0.0364,6.84449 -0.01,12.75515 0.0596,13.13481 0.31732,1.73991 2.4826,3.81793 4.46127,4.28147 0.48329,0.11322 6.93786,0.2159 14.34349,0.22818 10.84066,0.018 13.66283,-0.0373 14.48106,-0.28354 z m -14.57537,-4.73121 c -0.0815,-0.0815 -0.14815,-4.2815 -0.14815,-9.33339 0,-5.05188 -0.0604,-9.18524 -0.13413,-9.18524 -0.17186,0 -7.85049,4.85931 -8.36176,5.29162 -0.5187,0.43859 -0.68518,0.27851 -2.53082,-2.43367 -1.40181,-2.05997 -1.49539,-2.26757 -1.12557,-2.49681 0.22185,-0.13752 2.57187,-1.67333 5.22226,-3.41291 l 4.81889,-3.16288 4.61114,-0.004 4.61114,-0.004 0,12.44453 0,12.44452 -3.40743,0 c -1.87408,0 -3.47409,-0.0667 -3.55557,-0.14815 z m 36.74097,6.72808 c -2.41548,-0.53706 -4.3034,-1.97838 -5.24768,-4.0063 l -0.52579,-1.12917 -0.002,-13.60487 -0.002,-13.60486 0.52795,-1.19378 c 0.60671,-1.37188 2.02434,-2.83396 3.35366,-3.45882 1.89776,-0.89205 2.96568,-0.94414 17.89631,-0.87292 l 14.33343,0.0684 1.32209,0.53255 c 1.59026,0.64056 3.16727,2.05653 3.91029,3.51095 l 0.54553,1.06764 0,13.88898 0,13.88898 -0.65291,1.17857 c -1.18512,2.13928 -3.01387,3.40932 -5.48695,3.81061 -2.11215,0.34272 -28.38796,0.27616 -29.97148,-0.0759 z m 30.39048,-2.35233 c 1.55386,-0.70529 2.45229,-1.53331 3.10425,-2.86089 l 0.6166,-1.2556 0,-12.33341 c 0,-12.03875 -0.0111,-12.35736 -0.46403,-13.33591 -0.58964,-1.27387 -1.61498,-2.29919 -3.06306,-3.06305 l -1.13961,-0.60115 -14.22231,0 c -14.00602,0 -14.23756,0.007 -15.22399,0.46901 -1.37905,0.64571 -2.34177,1.50228 -3.05826,2.7211 l -0.60676,1.03214 -0.0646,12.20384 c -0.0573,10.83678 -0.0235,12.33436 0.30192,13.36898 0.55133,1.75283 2.10365,3.247 4.09602,3.94258 0.18334,0.064 6.73338,0.12207 14.55565,0.12903 13.59578,0.0121 14.26398,-0.006 15.16816,-0.41667 z m -29.04798,-9.05934 c 0.009,-4.53097 0.04,-4.8971 0.5,-5.82277 0.60812,-1.22377 2.15477,-2.3222 3.76509,-2.67394 1.14416,-0.24993 2.83015,-0.39411 10.50362,-0.89825 6.21084,-0.40805 6.63838,-0.6055 6.51176,-3.00744 -0.0581,-1.10201 -0.15285,-1.34006 -0.69401,-1.74335 -0.58391,-0.43514 -0.95611,-0.47189 -5.44448,-0.53741 -5.5233,-0.0806 -6.48728,0.0141 -7.30531,0.71772 -0.4908,0.42217 -0.60703,0.73827 -0.68923,1.87466 l -0.0989,1.36687 -3.52887,0 -3.52887,0 0,-2.1943 c 0,-4.09943 1.02581,-5.59671 4.55559,-6.64934 1.45623,-0.43427 15.21747,-0.65324 17.95649,-0.28572 3.03106,0.4067 4.91881,1.61644 5.50079,3.52511 0.39607,1.29896 0.5264,5.63932 0.21662,7.21394 -0.85851,4.36368 -2.10419,4.82845 -14.76265,5.50808 -5.50432,0.29552 -6.35673,0.59564 -6.43337,2.26505 l -0.0334,0.72835 10.88896,0.11111 10.88895,0.11112 0,2.55557 0,2.55557 -14.38898,0.0572 -14.38898,0.0572 0.009,-4.83498 z m 50.52083,11.40694 c -2.48379,-0.60277 -4.67661,-2.54903 -5.30417,-4.70777 -0.30451,-1.04753 -0.34186,-2.94121 -0.28773,-14.59123 l 0.0622,-13.38748 0.59385,-1.12522 c 0.66282,-1.25592 1.95365,-2.5238 3.23495,-3.17747 1.75768,-0.8967 2.87002,-0.95113 17.94912,-0.87826 l 14.44453,0.0698 1.44446,0.69104 c 1.76301,0.84344 2.99473,2.01544 3.69211,3.51315 l 0.5258,1.12918 0.002,13.49175 c 0.002,13.04829 -0.0127,13.53166 -0.45215,14.70605 -0.81632,2.18182 -2.9826,3.8448 -5.65102,4.33808 -1.94405,0.35938 -28.73949,0.29594 -30.2541,-0.0716 z m 30.44115,-2.2662 c 0.63485,-0.21632 1.47919,-0.77596 2.13619,-1.41589 1.83493,-1.78727 1.81039,-1.56526 1.73553,-15.70319 -0.0522,-9.86544 -0.12312,-12.29602 -0.3717,-12.74564 -0.72869,-1.318 -1.87279,-2.44587 -3.08446,-3.04071 l -1.27508,-0.62598 -14.00008,0 c -13.26669,0 -14.05829,0.0223 -15.11121,0.42627 -1.50948,0.57908 -2.61006,1.50644 -3.30656,2.78615 l -0.58236,1.06998 0,12.6486 0,12.64859 0.57203,1.14792 c 0.59214,1.18828 2.0209,2.43364 3.31689,2.89116 0.44033,0.15545 5.46268,0.24131 14.79385,0.25289 12.43283,0.0154 14.25307,-0.0254 15.17696,-0.34015 z m -25.05951,-4.44101 c -1.46352,-0.35411 -2.39646,-0.8643 -3.29156,-1.80003 -0.92005,-0.96183 -1.28641,-2.28649 -1.28641,-4.6515 l 0,-2.08318 3.42069,0 c 3.77747,0 3.69047,-0.0349 3.69047,1.47972 0,0.56216 0.17942,0.95613 0.64958,1.42628 l 0.64958,0.64958 6.21473,0 c 7.40912,0 7.26398,0.0439 7.26398,-2.19643 0,-1.10477 -0.0909,-1.43777 -0.50573,-1.85298 -0.48903,-0.48946 -0.65961,-0.50854 -5.1667,-0.57782 l -4.66097,-0.0716 0,-2.53948 0,-2.53948 4.34347,0 c 4.31528,0 4.34699,-0.004 4.88893,-0.54546 0.42831,-0.42833 0.54544,-0.7756 0.54544,-1.61723 0,-0.58948 -0.14602,-1.28024 -0.32449,-1.53504 -0.63527,-0.90698 -1.30843,-0.99509 -7.06469,-0.92469 -5.4355,0.0665 -5.46792,0.0697 -6.03788,0.60557 -0.46229,0.43464 -0.57303,0.74597 -0.57303,1.61112 l 0,1.07239 -3.55557,0 -3.55558,0 0.002,-1.72224 c 0.004,-2.95382 0.8183,-4.78189 2.51633,-5.65007 1.9317,-0.98763 2.84548,-1.10049 9.9258,-1.22585 14.21798,-0.25173 15.97252,0.58707 15.74467,7.52703 -0.0941,2.86515 -0.33984,3.31252 -2.35908,4.29401 l -1.37285,0.66731 1.3477,0.39718 c 2.46352,0.72604 3.24891,2.33858 3.0281,6.21732 -0.19355,3.40031 -1.44547,4.95948 -4.49958,5.60391 -2.20348,0.46494 -18.04056,0.45044 -19.97775,-0.0183 z m -269.0241,-12.09029 0,-14.66676 4.77781,0 4.77781,0 0,6.00004 c 0,3.84032 0.0797,6.00004 0.22158,6.00004 0.12187,0 0.59687,-0.33888 1.05556,-0.75307 0.45869,-0.41419 3.584,-3.11367 6.94513,-5.99885 l 6.11115,-5.24578 6.16671,-0.001 c 3.39169,-6.6e-4 6.1667,0.0808 6.1667,0.18096 0,0.10018 -0.275,0.41837 -0.61111,0.70708 -0.33611,0.2887 -3.5513,3.18176 -7.14487,6.429 -3.59356,3.24724 -6.77482,6.10464 -7.06946,6.34977 -0.33228,0.27645 -0.48052,0.57181 -0.39036,0.77779 0.0799,0.18265 1.2112,1.24582 2.51388,2.3626 10.06502,8.62867 12.27576,10.54084 13.25497,11.46478 l 1.11363,1.05077 -6.91728,0.005 c -6.12176,0.004 -6.95179,-0.0368 -7.21739,-0.35682 -0.16506,-0.19889 -1.75232,-1.57282 -3.52723,-3.05317 -1.77492,-1.48035 -3.52712,-2.95691 -3.89379,-3.28124 -3.11685,-2.75693 -6.45086,-5.4799 -6.59814,-5.38888 -0.0988,0.0611 -0.17968,2.80517 -0.17968,6.09798 l 0,5.98692 -4.77781,0 -4.77781,0 0,-14.66676 z m 41.55582,-0.11111 0,-14.77787 5.00003,0 5.00003,0 0,14.77787 0,14.77787 -5.00003,0 -5.00003,0 0,-14.77787 z m 17.68855,14.61446 c -0.0731,-0.0731 -0.13288,-6.66626 -0.13288,-14.6515 l 0,-14.51861 7.17109,0 7.1711,0 0.88451,1.14643 c 0.48648,0.63053 1.19177,1.50554 1.5673,1.94446 0.37554,0.43891 1.02554,1.25122 1.44446,1.80511 0.41891,0.5539 1.7263,2.20391 2.9053,3.66669 1.17901,1.46278 3.55435,4.43462 5.27854,6.60408 1.72419,2.16945 3.23456,3.94446 3.35639,3.94446 0.14375,0 0.2215,-3.35408 0.2215,-9.55561 l 0,-9.55562 4.77781,0 4.77781,0 0,14.65503 0,14.65503 -6.63889,0.0168 c -3.77946,0.01 -6.88216,-0.0757 -7.20372,-0.19794 -0.51029,-0.19401 -1.37678,-1.13343 -3.40891,-3.69579 -10.35351,-13.05504 -12.32389,-15.48749 -12.44631,-15.36507 -0.0512,0.0512 -0.0994,4.2727 -0.10709,9.38114 -0.008,5.10844 -0.0666,9.42501 -0.13079,9.59237 -0.094,0.24503 -1.01614,0.30011 -4.73555,0.28285 -2.54033,-0.0118 -4.67858,-0.0812 -4.75167,-0.15432 z m 53.86746,0.0279 c -3.3417,-0.53036 -5.36681,-1.43408 -6.74565,-3.01031 -1.92609,-2.20181 -2.35438,-4.40069 -2.35222,-12.07652 0.002,-6.53272 0.30071,-8.31715 1.75516,-10.47912 1.60453,-2.38507 3.99647,-3.44486 8.75757,-3.88019 4.15954,-0.38033 19.53732,-0.12787 21.68407,0.356 3.45936,0.77972 5.75972,2.61934 6.707,5.36366 0.5156,1.49374 0.5276,1.70285 0.52744,9.19521 -1.6e-4,7.43172 -0.0155,7.70451 -0.49917,8.89958 -1.07088,2.64581 -2.90355,4.25864 -5.83404,5.13423 -1.61769,0.48333 -1.98676,0.49926 -12.55564,0.5418 -5.98893,0.0241 -11.13896,0.004 -11.44452,-0.0443 z m 19.17267,-8.58888 c 1.20317,-0.78931 1.37636,-1.47266 1.44973,-5.72016 0.0638,-3.69371 0.0415,-3.93846 -0.44422,-4.87592 -1.08606,-2.09613 -2.07868,-2.30554 -10.39337,-2.1927 -7.20669,0.0978 -7.50225,0.17015 -8.45147,2.06858 -0.52553,1.05108 -0.55546,1.30925 -0.55376,4.77781 0.002,3.21865 0.0559,3.77356 0.44445,4.54125 0.9915,1.95892 1.59002,2.06345 10.89767,1.90324 5.66758,-0.0976 6.52769,-0.15881 7.05097,-0.5021 z"
       id="path4251"
       inkscape:connector-curvature="0" />
    <g
       id="g4235"
       transform="translate(6.3460271,250.31551)" />
    <path
       style="fill:#000000"
       d=""
       id="path4217"
       inkscape:connector-curvature="0" />
  </g>
</svg>
