<?xml version="1.0" encoding="UTF-8" standalone="no"?>
<svg
   xmlns:dc="http://purl.org/dc/elements/1.1/"
   xmlns:cc="http://creativecommons.org/ns#"
   xmlns:rdf="http://www.w3.org/1999/02/22-rdf-syntax-ns#"
   xmlns:svg="http://www.w3.org/2000/svg"
   xmlns="http://www.w3.org/2000/svg"
   xmlns:sodipodi="http://sodipodi.sourceforge.net/DTD/sodipodi-0.dtd"
   xmlns:inkscape="http://www.inkscape.org/namespaces/inkscape"
   height="40"
   version="1.1"
   viewBox="0 0 40 40"
   width="40"
   xml:space="preserve"
   id="svg2"
   inkscape:version="0.91 r13725"
   sodipodi:docname="question.svg"><metadata
     id="metadata16"><rdf:RDF><cc:Work
         rdf:about=""><dc:format>image/svg+xml</dc:format><dc:type
           rdf:resource="http://purl.org/dc/dcmitype/StillImage" /><dc:title></dc:title></cc:Work></rdf:RDF></metadata><defs
     id="defs14" /><sodipodi:namedview
     pagecolor="#ffffff"
     bordercolor="#666666"
     borderopacity="1"
     objecttolerance="10"
     gridtolerance="10"
     guidetolerance="10"
     inkscape:pageopacity="0"
     inkscape:pageshadow="2"
     inkscape:window-width="1920"
     inkscape:window-height="1056"
     id="namedview12"
     showgrid="false"
     inkscape:zoom="7.375"
     inkscape:cx="8"
     inkscape:cy="16"
     inkscape:window-x="0"
     inkscape:window-y="24"
     inkscape:window-maximized="1"
     inkscape:current-layer="svg2" /><g
     id="Layer_1"
     transform="translate(0,8)" /><g
     id="question_x5F_mark"
     transform="translate(12,4)"
     style="fill:#34495e;fill-opacity:1"><g
       id="g6"
       style="fill:#34495e;fill-opacity:1"><path
         d="m 9.6,30 c 0,1.102 -0.895,2 -2,2 -1.105,0 -2,-0.898 -2,-2 0,-1.109 0.895,-2 2,-2 1.105,0 2,0.891 2,2 z"
         style="fill:#34495e;fill-opacity:1"
         id="path8"
         inkscape:connector-curvature="0" /><path
         d="m 7.676,25.977 c -1.336,0 -2.59,-0.523 -3.535,-1.469 -0.945,-1.105 -1.465,-2.359 -1.465,-3.695 0,-1.336 0.52,-2.59 1.465,-3.371 l 6.688,-6.688 C 11.584,9.996 12,8.992 12,7.926 12,6.856 11.584,5.852 10.828,5.098 9.269,3.539 6.732,3.536 5.174,5.098 4.416,5.852 4,6.855 4,7.926 l -4,0 C 0,5.789 0.834,3.778 2.348,2.266 5.368,-0.757 10.633,-0.754 13.657,2.27 15.168,3.777 16,5.785 16,7.926 c 0,2.137 -0.832,4.145 -2.344,5.656 l -6.688,6.523 c -0.389,0.391 -0.389,1.023 0,1.414 0.391,0.391 1.023,0.391 1.414,0 0.254,-0.258 0.293,-0.555 0.293,-0.711 l 4,0 c 0,1.336 -0.52,2.594 -1.465,3.699 -0.944,0.946 -2.198,1.47 -3.534,1.47 l 0,0 z"
         style="fill:#34495e;fill-opacity:1"
         id="path10"
         inkscape:connector-curvature="0" /></g></g></svg>