<?xml version="1.0" encoding="UTF-8" standalone="no"?>
<svg
   xmlns:dc="http://purl.org/dc/elements/1.1/"
   xmlns:cc="http://creativecommons.org/ns#"
   xmlns:rdf="http://www.w3.org/1999/02/22-rdf-syntax-ns#"
   xmlns:svg="http://www.w3.org/2000/svg"
   xmlns="http://www.w3.org/2000/svg"
   xmlns:sodipodi="http://sodipodi.sourceforge.net/DTD/sodipodi-0.dtd"
   xmlns:inkscape="http://www.inkscape.org/namespaces/inkscape"
   height="110px"
   style="enable-background:new 0 0 110 110;"
   version="1.0"
   viewBox="0 0 110 110"
   width="110px"
   xml:space="preserve"
   id="svg2"
   inkscape:version="0.91 r13725"
   sodipodi:docname="settings.svg"><metadata
     id="metadata25"><rdf:RDF><cc:Work
         rdf:about=""><dc:format>image/svg+xml</dc:format><dc:type
           rdf:resource="http://purl.org/dc/dcmitype/StillImage" /></cc:Work></rdf:RDF></metadata><defs
     id="defs23" /><sodipodi:namedview
     pagecolor="#ffffff"
     bordercolor="#666666"
     borderopacity="1"
     objecttolerance="10"
     gridtolerance="10"
     guidetolerance="10"
     inkscape:pageopacity="0"
     inkscape:pageshadow="2"
     inkscape:window-width="1920"
     inkscape:window-height="1056"
     id="namedview21"
     showgrid="false"
     inkscape:zoom="2.1454545"
     inkscape:cx="55"
     inkscape:cy="55"
     inkscape:window-x="0"
     inkscape:window-y="24"
     inkscape:window-maximized="1"
     inkscape:current-layer="R-Multicolor" /><g
     id="R-Multicolor"><rect
       style="fill:#32bea6;fill-opacity:1"
       id="rect4153"
       width="110"
       height="110"
       x="0"
       y="-7.1054274e-15" /><g
       id="g7"><path
         d="M83.485,66.502c-3.139-3.139-7.582-4.164-11.583-3.098L50.167,41.67    c1.747-4.929,0.664-10.637-3.28-14.582c-3.947-3.947-9.659-5.029-14.591-3.277l10.348,10.348v5.657l-2.828,2.828h-5.657    L23.811,32.296c-1.751,4.932-0.669,10.644,3.277,14.591c3.949,3.949,9.666,5.03,14.6,3.274l21.728,21.728    c-1.066,4.002-0.041,8.445,3.098,11.584c4.686,4.686,12.284,4.686,16.971,0C88.172,78.787,88.172,71.189,83.485,66.502z     M76.866,81.953l-6.965-1.866l-1.866-6.965l5.099-5.099l6.965,1.866l1.866,6.965L76.866,81.953z"
         style="fill:#E2E4E5;"
         id="path9" /><path
         d="M71.902,63.404L50.167,41.67c1.747-4.929,0.664-10.637-3.28-14.582    c-3.947-3.947-9.659-5.029-14.591-3.277l10.348,10.348v5.657l-1.355,1.355l29.348,29.348l2.497-2.497l6.965,1.866l1.866,6.965    l-2.497,2.497l4.067,4.067c4.633-4.69,4.619-12.247-0.05-16.916C80.346,63.363,75.903,62.338,71.902,63.404z"
         style="fill:#FFFFFF;"
         id="path11" /><path
         d="M53.788,68.08c0.757-0.757,1.055-1.864,0.778-2.899c-0.268-1.001-0.009-2.114,0.777-2.899    l2.828-2.828c0.391-0.391,0.391-1.024,0-1.414l-5.657-5.657c-0.391-0.391-1.024-0.391-1.414,0l-2.828,2.828    c-0.785,0.785-1.898,1.044-2.899,0.777c-1.036-0.277-2.141,0.02-2.899,0.778L24.23,75.01c-3.536,3.536,7.778,14.849,11.314,11.314    L53.788,68.08z"
         style="fill:#DF2C2C;"
         id="path13" /><polygon
         points="83.187,24.539 71.166,30.903 70.459,35.853 53.222,53.09 57.464,57.333 74.702,40.095     79.581,39.459 86.095,27.447   "
         style="fill:#E2E4E5;"
         id="polygon15" /><polygon
         points="83.187,24.539 71.166,30.903 70.459,35.853 53.222,53.09 55.566,55.434 84.824,26.176       "
         style="fill:#FFFFFF;"
         id="polygon17" /><path
         d="M52.515,52.383c-0.391-0.391-1.023-0.391-1.414,0l-2.829,2.829    c-0.785,0.786-1.898,1.044-2.899,0.776c-1.036-0.277-2.141,0.021-2.899,0.779L24.23,75.01c-1.814,1.814,0.284,5.674,3.232,8.527    l28.104-28.103L52.515,52.383z"
         style="fill:#FA5655;"
         id="path19" /></g></g></svg>