<?xml version="1.0" encoding="UTF-8" standalone="no"?>
<!-- Created with Inkscape (http://www.inkscape.org/) -->

<svg
   xmlns:dc="http://purl.org/dc/elements/1.1/"
   xmlns:cc="http://creativecommons.org/ns#"
   xmlns:rdf="http://www.w3.org/1999/02/22-rdf-syntax-ns#"
   xmlns:svg="http://www.w3.org/2000/svg"
   xmlns="http://www.w3.org/2000/svg"
   xmlns:sodipodi="http://sodipodi.sourceforge.net/DTD/sodipodi-0.dtd"
   xmlns:inkscape="http://www.inkscape.org/namespaces/inkscape"
   width="320"
   height="320"
   viewBox="0 0 320 319.99999"
   id="svg4302"
   version="1.1"
   inkscape:version="0.91 r13725"
   sodipodi:docname="veturi.svg">
  <defs
     id="defs4304" />
  <sodipodi:namedview
     id="base"
     pagecolor="#ffffff"
     bordercolor="#666666"
     borderopacity="1.0"
     inkscape:pageopacity="0.0"
     inkscape:pageshadow="2"
     inkscape:zoom="1.979899"
     inkscape:cx="105.58376"
     inkscape:cy="112.11472"
     inkscape:document-units="px"
     inkscape:current-layer="layer1"
     showgrid="false"
     inkscape:window-width="1920"
     inkscape:window-height="1056"
     inkscape:window-x="0"
     inkscape:window-y="24"
     inkscape:window-maximized="1"
     fit-margin-top="0"
     fit-margin-left="0"
     fit-margin-right="0"
     fit-margin-bottom="0"
     units="px" />
  <metadata
     id="metadata4307">
    <rdf:RDF>
      <cc:Work
         rdf:about="">
        <dc:format>image/svg+xml</dc:format>
        <dc:type
           rdf:resource="http://purl.org/dc/dcmitype/StillImage" />
        <dc:title></dc:title>
      </cc:Work>
    </rdf:RDF>
  </metadata>
  <g
     inkscape:label="Layer 1"
     inkscape:groupmode="layer"
     id="layer1"
     transform="translate(-249.21319,-587.1166)">
    <g
       id="g4969"
       transform="matrix(0.95238082,0,0,0.95238082,15.993501,281.41833)">
      <path
         style="fill:#e2b644"
         d="m 411.63071,619.75156 c -2.24878,-0.58766 -2.43433,-7.49784 -0.25,-9.31067 2.94168,-2.44138 7.13457,3.20075 5.52489,7.43453 -0.95601,2.51449 -1.75064,2.79713 -5.27489,1.87614 z m -20.5,-3.97295 c -0.6875,-0.27741 -1.25,-1.64041 -1.25,-3.02889 0,-1.80224 2.71792,-5.45956 9.5,-12.78347 9.46628,-10.22255 9.5,-10.27742 9.5,-15.4579 0,-6.46199 1.31027,-9.06746 4.55993,-9.06746 3.00069,0 4.44007,3.08954 4.44007,9.5303 0,4.83284 0.89085,6.13649 12.77446,18.69385 5.1554,5.44769 6.30283,7.2511 6.04446,9.5 -0.26334,2.2921 -0.86229,2.82874 -3.43683,3.07936 -2.63508,0.2565 -3.7588,-0.42457 -7.25639,-4.39805 -10.16637,-11.5496 -13.66969,-11.83142 -23.2359,-1.86921 -5.90718,6.15172 -8.08354,7.23645 -11.6398,5.80147 z m -42,-25.04345 c -2.7688,-0.5333 -2.77938,-1.42137 -0.14515,-12.18984 3.17046,-12.96059 1.41279,-15.7064 -12.08134,-18.87329 -5.91206,-1.38748 -7.45719,-2.1691 -8.57994,-4.34027 -1.2256,-2.37005 -1.1631,-2.83472 0.59535,-4.4261 1.89016,-1.71056 2.43963,-1.65362 14.47876,1.50042 13.39107,3.50824 16.59533,3.51465 21.47085,0.043 3.32207,-2.36553 6.29552,-2.57576 7.96579,-0.56321 2.29373,2.76378 0.7937,5.92999 -3.94023,8.31688 -4.151,2.09297 -4.72485,2.87689 -7.68634,10.5 -1.76023,4.53099 -3.22907,8.98835 -3.26409,9.90525 -0.11562,3.02775 -3.96823,10.83549 -5.27812,10.69673 -0.70705,-0.0749 -2.29804,-0.3312 -3.53554,-0.56955 z m 125.52323,-0.008 c -2.43124,-0.36944 -2.95258,-1.19316 -4.81029,-7.60017 -5.41741,-18.68422 -6.37754,-20.42754 -12.96294,-23.53717 -3.95355,-1.86687 -5.20537,-5.90367 -2.52148,-8.1311 1.32587,-1.10038 2.707,-0.86868 8.59717,1.44225 7.70665,3.0236 7.19644,3.04914 22.56464,-1.12969 11.31158,-3.07579 13.35967,-2.65315 13.35967,2.75687 0,3.11109 -2.29431,4.91274 -6.25612,4.91274 -4.41588,0 -11.69621,3.15463 -14.23015,6.16605 -3.03666,3.60886 -3.11954,5.76004 -0.51373,13.33395 2.28683,6.64677 2.64699,12.57755 0.75,12.35017 -0.6875,-0.0824 -2.47705,-0.33629 -3.97677,-0.56418 z m -97.60292,-2.03627 c -1.69403,-3.29374 1.60093,-8.25 5.48468,-8.25 1.95007,0 2.34501,0.51632 2.34501,3.06574 0,1.68616 -0.46583,3.93616 -1.03518,5 -1.29659,2.42269 -5.58345,2.53894 -6.79451,0.18426 z m 66.02969,0.55 c -2.54575,-2.54575 -1.0911,-8.8 2.04675,-8.8 2.73096,0 4.6827,2.7903 4.72145,6.75 0.0284,2.90043 -0.26937,3.25 -2.7682,3.25 -1.54,0 -3.34,-0.54 -4,-1.2 z m -52,-8 c -2.48668,-2.48668 -0.93393,-5.35372 8.3,-15.32536 l 9.5,-10.25897 0,-5.90784 c 0,-6.27866 1.09912,-8.30783 4.5,-8.30783 3.34729,0 4.5,2.0128 4.5,7.85763 0,4.82727 0.45563,6.04579 3.94489,10.55 2.1697,2.8008 6.4447,7.552 9.5,10.55821 5.52857,5.43972 6.73882,8.45045 4.35511,10.83416 -2.33056,2.33056 -4.89971,1.12589 -12.36928,-5.8 -4.96758,-4.60599 -8.36645,-7 -9.9382,-7 -2.24979,0 -11.46976,6.87675 -15.89751,11.85721 -2.12493,2.39019 -4.58494,2.75286 -6.39501,0.94279 z m -57.2,-6.71821 c 0,-5.12918 3.34546,-7.79277 7.44285,-5.92587 4.9455,2.25331 2.08437,7.84408 -4.01428,7.84408 -2.71317,0 -3.42857,-0.40025 -3.42857,-1.91821 z m 151.19291,0.35451 c -1.61678,-1.14206 -2.21521,-2.42359 -2,-4.28299 0.2669,-2.30607 0.73603,-2.63362 3.58467,-2.50286 4.27376,0.19617 6.39642,2.05133 6.02298,5.26395 -0.3706,3.18814 -4.1722,3.94864 -7.60765,1.5219 z m -107.94015,-1.94912 c -0.52052,-0.93013 0.069,-5.17479 1.53052,-11.02028 2.35074,-9.40189 2.3562,-9.54332 0.49156,-12.73718 -1.64894,-2.82439 -3.10618,-3.59992 -11.61131,-6.17952 -8.22959,-2.49603 -9.8178,-3.31667 -10.32428,-5.33464 -0.36586,-1.4577 -0.0346,-2.94876 0.85202,-3.8354 1.26743,-1.26743 3.2848,-1.06323 15.97843,1.61738 15.22144,3.21441 17.81293,3.13813 21.996,-0.6475 0.91816,-0.83092 2.71898,-1.36209 4.00183,-1.1804 1.78252,0.25247 2.40328,1.05539 2.63278,3.40538 0.26765,2.74063 -0.29442,3.46989 -5.16873,6.70625 -3.00797,1.99718 -5.69781,4.43842 -5.97743,5.42498 -0.27962,0.98656 -2.13167,7.08125 -4.11568,13.54375 -3.52711,11.48885 -3.67209,11.75 -6.52319,11.75 -1.60374,0 -3.29688,-0.68077 -3.76252,-1.51282 z m 66.55509,0.26282 c -0.86592,-0.6875 -3.03281,-6.2 -4.8153,-12.25 -3.35568,-11.38956 -6.01684,-15.58321 -12.24255,-19.29268 -2.10921,-1.25674 -2.75,-2.40384 -2.75,-4.92293 0,-3.01341 0.25841,-3.28439 3.13197,-3.28439 1.72258,0 4.65739,0.94277 6.52181,2.09504 3.94429,2.4377 7.38414,2.27087 22.30693,-1.08189 7.76609,-1.74483 9.87078,-1.90611 11.75,-0.90038 2.56281,1.37157 2.66786,1.76133 1.3845,5.13681 -0.75226,1.97858 -2.26295,2.68997 -8.96112,4.21979 -10.45056,2.38685 -13.71803,5.38405 -13.46187,12.34838 0.0947,2.57524 0.88222,6.65133 1.75,9.05798 0.86778,2.40665 1.57778,5.66915 1.57778,7.25 0,2.33577 -0.43257,2.87427 -2.30887,2.87427 -1.26988,0 -3.01735,-0.5625 -3.88328,-1.25 z m 2.64798,-54.84624 c -5.12672,-1.19168 -10.87653,-5.90298 -13.73043,-11.25049 -2.00195,-3.75117 -2.2489,-5.86365 -2.55075,-21.81996 -0.2213,-11.6987 0.0424,-18.37044 0.78076,-19.75 1.25846,-2.35146 6.39489,-2.90478 7.73557,-0.83331 0.44496,0.6875 1.03402,9.45506 1.30902,19.48347 l 0.5,18.23346 3.12836,3.12566 c 5.97715,5.972 16.24179,4.76578 20.07883,-2.35952 1.33244,-2.47431 1.82842,-6.32656 2.11338,-16.41436 0.35333,-12.50822 0.2653,-13.24814 -1.72411,-14.49054 -2.57196,-1.60622 -2.9281,-7.29506 -0.51467,-8.22118 2.93006,-1.12437 9.16286,-0.61959 10.37438,0.84019 0.86794,1.04581 1.10991,6.66216 0.87244,20.25 -0.32297,18.48019 -0.37625,18.88387 -3.10519,23.52624 -4.73603,8.05678 -15.12664,12.03756 -25.26759,9.68034 z m -161.65623,-1.15376 c -1.54524,-1.22044 -18.7996,-47.01563 -18.7996,-49.89644 0,-3.90614 5.91921,-5.23469 8.28349,-1.85921 0.7683,1.0969 4.26362,9.86708 7.7674,19.48931 3.50377,9.62222 6.6661,17.16226 7.02739,16.75565 0.36128,-0.40662 3.70512,-8.61431 7.43073,-18.23931 3.72562,-9.625 7.21531,-18.0625 7.75487,-18.75 2.66154,-3.39133 9.20911,0.0173 8.14873,4.24217 -1.41698,5.64571 -18.47523,47.93055 -19.63189,48.66452 -1.92656,1.22251 -6.19365,1.00507 -7.98112,-0.40669 z m 46.0537,-0.76509 c -7.37971,-3.899 -10.10424,-16.0965 -5.10562,-22.85749 1.93071,-2.61143 1.93292,-2.73335 0.1111,-6.13032 -2.30238,-4.29304 -2.41986,-12.01246 -0.25232,-16.58021 0.88356,-1.86195 3.24606,-4.40496 5.25,-5.65113 3.30721,-2.05661 4.81446,-2.25898 16.3283,-2.19235 8.83925,0.0512 13.15928,0.46722 14.25,1.37244 1.77959,1.47694 2.08055,7.22277 0.53006,10.11989 -1.41088,2.63625 -6.53514,2.59515 -8.19689,-0.0657 -1.07029,-1.71381 -2.33203,-2 -8.81735,-2 -8.50963,0 -10.63343,1.02089 -11.51958,5.53737 -0.43018,2.19252 -0.0418,3.72234 1.39624,5.5 1.86556,2.30611 2.70105,2.48425 13.14498,2.80277 10.48347,0.31972 11.21523,0.47716 12.19317,2.6235 0.73732,1.61825 0.70887,2.9028 -0.0977,4.40987 -1.04451,1.95164 -1.96264,2.12645 -11.16863,2.12645 -13.02653,0 -15.85362,1.37529 -15.88376,7.72695 -0.0261,5.50343 3.08321,6.69055 15.43279,5.89213 8.75929,-0.5663 10.60494,-0.42319 11.95517,0.92704 2.242,2.24201 1.98559,5.0681 -0.62578,6.89718 -3.49867,2.45056 -24.03434,2.12511 -28.92419,-0.45839 z m 62.28953,0.68719 c -0.70711,-0.85201 -1.19895,-9.00493 -1.37244,-22.75 l -0.27039,-21.4221 -3.85902,-0.31686 c -3.02159,-0.24811 -4.18171,0.14384 -5.34606,1.80619 -1.0875,1.55262 -2.33447,2.04079 -4.64098,1.81686 -3.0676,-0.29781 -3.16236,-0.45416 -3.46159,-5.71154 -0.20758,-3.64725 0.11767,-5.6751 1,-6.23469 2.1656,-1.37346 41.20572,-1.06189 42.60765,0.34004 1.55432,1.55432 1.55432,9.04568 0,10.6 -1.93309,1.93309 -6.59309,1.45514 -7.8,-0.8 -0.79407,-1.48373 -2.09382,-2 -5.03518,-2 l -3.96482,0 0,21.42857 c 0,18.14719 -0.24063,21.66921 -1.57143,23 -1.91989,1.9199 -4.80181,2.03155 -6.28574,0.24353 z m 102.05717,0.1279 c -0.85819,-0.85819 -1.2,-7.26478 -1.2,-22.49153 0,-20.20852 -0.10173,-21.35505 -2,-22.54054 -2.35234,-1.46906 -2.67412,-5.96357 -0.55299,-7.72395 1.01389,-0.84146 5.45212,-1.1026 14.8279,-0.87245 12.32433,0.30253 13.66664,0.52452 16.99971,2.81129 4.87856,3.34713 7.72538,8.66947 7.72538,14.44317 0,5.4804 -2.93249,11.82845 -6.56309,14.2073 -2.89976,1.9 -2.74279,2.67766 1.78202,8.82854 1.98968,2.70469 4.08793,4.47552 5.33107,4.49917 2.83968,0.054 4.45,1.93713 4.45,5.20382 0,3.18883 -2.36107,4.83518 -6.93426,4.83518 -3.55501,0 -4.5307,-0.88339 -12.45436,-11.27631 -5.55143,-7.28142 -6.10973,-7.72369 -9.75,-7.72369 l -3.86138,0 0,8.46482 c 0,7.34546 -0.25578,8.6017 -1.93426,9.5 -2.54193,1.3604 -4.39252,1.3084 -5.86574,-0.16482 z m 23.05276,-29.78418 c 5.19774,-4.08855 4.25605,-11.06963 -1.8366,-13.6153 -1.99067,-0.83175 -5.67719,-1.36829 -8.25636,-1.20163 l -4.6598,0.30111 -0.29044,8.25 -0.29044,8.25 6.40558,0 c 4.87437,0 7.00857,-0.47431 8.92806,-1.98418 z m 33.94724,29.78418 c -0.85691,-0.85691 -1.2,-7.18563 -1.2,-22.13533 l 0,-20.93533 -2.56378,-2.37603 c -2.61639,-2.42479 -2.63983,-5.88281 -0.0514,-7.588 1.79154,-1.18023 9.10556,-0.87497 10.41522,0.43469 0.86863,0.86863 1.2,8.02857 1.2,25.92857 0,21.14719 -0.22759,24.95616 -1.57143,26.3 -1.87152,1.87152 -4.5677,2.0323 -6.22857,0.37143 z M 357.54738,447.77422 c -1.47224,-1.47224 -0.55349,-5.35812 1.58333,-6.69676 1.2375,-0.77525 5.24432,-1.95343 8.90404,-2.61818 11.97974,-2.176 14.42412,-7.47233 9.93124,-21.51839 -2.19176,-6.85207 -1.23583,-10 3.03669,-10 2.15968,0 2.72883,1.10184 6.19849,12 4.80104,15.07996 5.42739,16.32678 9.14418,18.20229 6.56504,3.31275 9.09226,7.34081 6.33536,10.09771 -1.78608,1.78608 -3.98361,1.47569 -9.20398,-1.3 -5.80345,-3.08573 -7.67917,-3.08573 -19.59602,0 -9.50245,2.46054 -15.08006,3.0866 -16.33333,1.83333 z m 100.41001,-0.9189 c -2.43283,-0.7633 -8.13198,-1.90664 -12.66478,-2.54074 -7.82787,-1.09507 -8.37795,-1.04555 -10.96153,0.98669 -1.71364,1.34795 -4.15021,2.13962 -6.58523,2.13962 -3.60393,0 -3.86514,-0.19723 -3.86514,-2.91844 0,-2.24534 0.7911,-3.40737 3.43007,-5.03834 6.7903,-4.19664 9.11753,-8.0105 11.61828,-19.04004 2.79412,-12.32347 4.24602,-14.60216 8.31762,-13.05414 2.57757,0.97999 2.7934,1.42699 2.32517,4.81561 -0.28388,2.05444 -1.24707,6.21035 -2.14042,9.23535 -3.19081,10.80442 -0.30336,14.74844 12.92558,17.65528 6.13471,1.34801 7.93976,2.16376 8.75708,3.95759 2.39477,5.25595 -1.87939,6.71234 -11.1567,3.80156 z m -48.36242,-8.0335 c -0.39284,-0.39285 -0.71426,-3.3236 -0.71426,-6.5128 0,-6.48937 -0.57589,-7.39064 -12.7628,-19.97416 -5.32233,-5.49553 -6.3423,-7.09252 -6.06751,-9.5 0.27732,-2.42972 0.83616,-2.94308 3.48361,-3.20012 2.69767,-0.26191 3.70911,0.36464 7,4.33623 4.80803,5.80256 10.47674,8.8939 14.7441,8.04047 1.99339,-0.39865 5.50031,-2.9998 9.80932,-7.27575 6.27269,-6.22457 6.87131,-6.58028 9.25,-5.49647 4.65162,2.11941 3.41606,5.53785 -5.26758,14.57386 -9.97336,10.37808 -11.01775,12.14485 -11.38576,19.26115 l -0.30338,5.86666 -3.53574,0.29759 c -1.94466,0.16368 -3.85716,-0.0238 -4.25,-0.41666 z m -81.26723,-9.43947 c -2.89511,-3.19905 -0.83915,-5.16545 7.34277,-7.0229 7.70594,-1.7494 11.4111,-3.70955 13.57664,-7.18249 1.48333,-2.37884 1.04002,-7.77909 -1.52254,-18.54726 -1.38273,-5.81042 -0.67809,-7.14149 3.79752,-7.1735 2.47276,-0.0177 3.87354,2.90906 8.84707,18.48469 3.08243,9.6533 3.36334,10.11291 8.10233,13.25655 5.5774,3.69982 5.96755,4.3316 4.43885,7.18801 -1.49567,2.79469 -5.89637,2.66342 -11.84995,-0.35349 -3.43883,-1.74259 -5.22581,-2.14478 -6.46017,-1.454 -1.55039,0.86764 -20.70356,4.86293 -23.31258,4.86293 -0.60335,0 -1.93532,-0.92634 -2.95994,-2.05854 z m 156.55297,0.5342 c -4.125,-0.76426 -9.3,-2.02511 -11.5,-2.80187 -3.73489,-1.3187 -4.31262,-1.25527 -8.71676,0.95695 -2.59421,1.30309 -6.30671,2.36926 -8.25,2.36926 -3.2538,0 -3.53324,-0.23566 -3.53324,-2.97968 0,-2.46221 0.68459,-3.32892 3.94207,-4.99076 5.67925,-2.89734 8.6068,-7.38524 11.03392,-16.91485 3.5839,-14.07143 6.59965,-18.37164 10.57205,-15.07484 1.99962,1.65954 1.8255,5.2212 -0.66628,13.62839 -2.09322,7.06247 -2.09696,7.22457 -0.25317,10.98333 1.77387,3.61622 2.38219,3.96852 11.67151,6.75951 9.7957,2.94314 9.79996,2.94584 9.5,6.01668 -0.25699,2.63093 -0.73102,3.09845 -3.3001,3.25484 -1.65,0.10044 -6.375,-0.44269 -10.5,-1.20696 z m -149.25,-17.53053 c -2.24132,-1.33776 -2.35489,-6.77578 -0.15911,-7.61838 0.875,-0.33577 3.15424,0.13502 5.065,1.0462 2.88749,1.37694 3.42091,2.11852 3.1591,4.39186 -0.25736,2.23476 -0.86387,2.77998 -3.31499,2.98001 -1.65,0.13465 -3.7875,-0.22521 -4.75,-0.79969 z m 147.55145,-0.60195 c -0.34968,-0.91126 0.0192,-2.82376 0.81973,-4.25 1.12884,-2.01118 2.23242,-2.59318 4.91716,-2.59318 2.80428,0 3.52106,0.41749 3.77445,2.19842 0.55174,3.87781 -1.51732,6.30158 -5.37936,6.30158 -2.33232,0 -3.70785,-0.55155 -4.13198,-1.65682 z m -73.10145,-7.54318 c -0.66973,-0.66973 -1.2,-3.88217 -1.2,-7.26975 l 0,-6.06975 -9.5,-9.4605 c -9.64141,-9.60132 -11.31425,-12.78575 -8.3,-15.8 2.20932,-2.20932 4.10532,-1.24195 11.36771,5.8 6.38749,6.1936 7.6607,7 11.05219,7 3.41019,0 4.61545,-0.77716 10.92477,-7.04437 6.59635,-6.55233 7.27903,-6.97316 9.77352,-6.02475 4.66093,1.77208 3.48568,4.80955 -5.65695,14.62066 -9.85591,10.57654 -10.66124,11.92118 -10.66124,17.80093 0,2.46618 -0.27314,5.19576 -0.60699,6.06574 -0.71712,1.8688 -5.45455,2.12025 -7.19301,0.38179 z m -32.7394,-5.8762 c -1.45342,-2.81059 -1.45365,-3.28547 -0.003,-5.5 1.93247,-2.94932 2.55295,-2.99392 5.35347,-0.38485 3.53603,3.29397 2.65524,8.96105 -1.39238,8.96105 -1.63198,0 -2.86146,-0.95553 -3.95809,-3.0762 z m 64.0666,1.12022 c -0.32495,-0.52579 0.0755,-2.55079 0.88996,-4.5 1.23708,-2.96074 1.98293,-3.54402 4.53181,-3.54402 2.70436,0 3.05103,0.33157 3.05103,2.91821 0,4.84142 -0.92755,6.08179 -4.54797,6.08179 -1.8337,0 -3.59987,-0.43019 -3.92483,-0.95598 z m -31.10334,-29.38185 c -1.03699,-2.70234 0.0539,-7.94691 1.88471,-9.06132 2.5348,-1.5429 4.8735,1.79323 4.48594,6.39915 -0.25152,2.9891 -0.69676,3.54627 -3.0502,3.81697 -1.73279,0.19931 -2.96532,-0.22934 -3.32045,-1.1548 z"
         id="path4973"
         inkscape:connector-curvature="0" />
      <path
         style="fill:#8f866f"
         d="m 446.33654,518.34465 c -5.12672,-1.19168 -10.87653,-5.90298 -13.73043,-11.25049 -2.00195,-3.75117 -2.2489,-5.86365 -2.55075,-21.81996 -0.2213,-11.6987 0.0424,-18.37044 0.78076,-19.75 1.25846,-2.35146 6.39489,-2.90478 7.73557,-0.83331 0.44496,0.6875 1.03402,9.45506 1.30902,19.48347 l 0.5,18.23346 3.12836,3.12566 c 5.97715,5.972 16.24179,4.76578 20.07883,-2.35952 1.33244,-2.47431 1.82842,-6.32656 2.11338,-16.41436 0.35333,-12.50822 0.2653,-13.24814 -1.72411,-14.49054 -2.57196,-1.60622 -2.9281,-7.29506 -0.51467,-8.22118 2.93006,-1.12437 9.16286,-0.61959 10.37438,0.84019 0.86794,1.04581 1.10991,6.66216 0.87244,20.25 -0.32297,18.48019 -0.37625,18.88387 -3.10519,23.52624 -4.73603,8.05678 -15.12664,12.03756 -25.26759,9.68034 z m -161.65623,-1.15376 c -1.54524,-1.22044 -18.7996,-47.01563 -18.7996,-49.89644 0,-3.90614 5.91921,-5.23469 8.28349,-1.85921 0.7683,1.0969 4.26362,9.86708 7.7674,19.48931 3.50377,9.62222 6.6661,17.16226 7.02739,16.75565 0.36128,-0.40662 3.70512,-8.61431 7.43073,-18.23931 3.72562,-9.625 7.21531,-18.0625 7.75487,-18.75 2.66154,-3.39133 9.20911,0.0173 8.14873,4.24217 -1.41698,5.64571 -18.47523,47.93055 -19.63189,48.66452 -1.92656,1.22251 -6.19365,1.00507 -7.98112,-0.40669 z m 46.0537,-0.76509 c -7.37971,-3.899 -10.10424,-16.0965 -5.10562,-22.85749 1.93071,-2.61143 1.93292,-2.73335 0.1111,-6.13032 -2.30238,-4.29304 -2.41986,-12.01246 -0.25232,-16.58021 0.88356,-1.86195 3.24606,-4.40496 5.25,-5.65113 3.30721,-2.05661 4.81446,-2.25898 16.3283,-2.19235 8.83925,0.0512 13.15928,0.46722 14.25,1.37244 1.77959,1.47694 2.08055,7.22277 0.53006,10.11989 -1.41088,2.63625 -6.53514,2.59515 -8.19689,-0.0657 -1.07029,-1.71381 -2.33203,-2 -8.81735,-2 -8.50963,0 -10.63343,1.02089 -11.51958,5.53737 -0.43018,2.19252 -0.0418,3.72234 1.39624,5.5 1.86556,2.30611 2.70105,2.48425 13.14498,2.80277 10.48347,0.31972 11.21523,0.47716 12.19317,2.6235 0.73732,1.61825 0.70887,2.9028 -0.0977,4.40987 -1.04451,1.95164 -1.96264,2.12645 -11.16863,2.12645 -13.02653,0 -15.85362,1.37529 -15.88376,7.72695 -0.0261,5.50343 3.08321,6.69055 15.43279,5.89213 8.75929,-0.5663 10.60494,-0.42319 11.95517,0.92704 2.242,2.24201 1.98559,5.0681 -0.62578,6.89718 -3.49867,2.45056 -24.03434,2.12511 -28.92419,-0.45839 z m 62.28953,0.68719 c -0.70711,-0.85201 -1.19895,-9.00493 -1.37244,-22.75 l -0.27039,-21.4221 -3.85902,-0.31686 c -3.02159,-0.24811 -4.18171,0.14384 -5.34606,1.80619 -1.0875,1.55262 -2.33447,2.04079 -4.64098,1.81686 -3.0676,-0.29781 -3.16236,-0.45416 -3.46159,-5.71154 -0.20758,-3.64725 0.11767,-5.6751 1,-6.23469 2.1656,-1.37346 41.20572,-1.06189 42.60765,0.34004 1.55432,1.55432 1.55432,9.04568 0,10.6 -1.93309,1.93309 -6.59309,1.45514 -7.8,-0.8 -0.79407,-1.48373 -2.09382,-2 -5.03518,-2 l -3.96482,0 0,21.42857 c 0,18.14719 -0.24063,21.66921 -1.57143,23 -1.91989,1.9199 -4.80181,2.03155 -6.28574,0.24353 z m 102.05717,0.1279 c -0.85819,-0.85819 -1.2,-7.26478 -1.2,-22.49153 0,-20.20852 -0.10173,-21.35505 -2,-22.54054 -2.35234,-1.46906 -2.67412,-5.96357 -0.55299,-7.72395 1.01389,-0.84146 5.45212,-1.1026 14.8279,-0.87245 12.32433,0.30253 13.66664,0.52452 16.99971,2.81129 4.87856,3.34713 7.72538,8.66947 7.72538,14.44317 0,5.4804 -2.93249,11.82845 -6.56309,14.2073 -2.89976,1.9 -2.74279,2.67766 1.78202,8.82854 1.98968,2.70469 4.08793,4.47552 5.33107,4.49917 2.83968,0.054 4.45,1.93713 4.45,5.20382 0,3.18883 -2.36107,4.83518 -6.93426,4.83518 -3.55501,0 -4.5307,-0.88339 -12.45436,-11.27631 -5.55143,-7.28142 -6.10973,-7.72369 -9.75,-7.72369 l -3.86138,0 0,8.46482 c 0,7.34546 -0.25578,8.6017 -1.93426,9.5 -2.54193,1.3604 -4.39252,1.3084 -5.86574,-0.16482 z m 23.05276,-29.78418 c 5.19774,-4.08855 4.25605,-11.06963 -1.8366,-13.6153 -1.99067,-0.83175 -5.67719,-1.36829 -8.25636,-1.20163 l -4.6598,0.30111 -0.29044,8.25 -0.29044,8.25 6.40558,0 c 4.87437,0 7.00857,-0.47431 8.92806,-1.98418 z m 33.94724,29.78418 c -0.85691,-0.85691 -1.2,-7.18563 -1.2,-22.13533 l 0,-20.93533 -2.56378,-2.37603 c -2.61639,-2.42479 -2.63983,-5.88281 -0.0514,-7.588 1.79154,-1.18023 9.10556,-0.87497 10.41522,0.43469 0.86863,0.86863 1.2,8.02857 1.2,25.92857 0,21.14719 -0.22759,24.95616 -1.57143,26.3 -1.87152,1.87152 -4.5677,2.0323 -6.22857,0.37143 z"
         id="path4971"
         inkscape:connector-curvature="0" />
    </g>
  </g>
</svg>
